<svg id="baea5eba-e6c7-44ec-bba9-4066b7ccf84f" data-name="Layer 1" xmlns="http://www.w3.org/2000/svg" xmlns:xlink="http://www.w3.org/1999/xlink" width="107.75" height="107.31" viewBox="0 0 107.75 107.31">
  <defs>
    <linearGradient id="f479e366-babb-41b9-9474-4b6df082a8c8" y1="4.29" x2="40.85" y2="4.29" gradientUnits="userSpaceOnUse">
      <stop offset="0" stop-color="#ee513b"/>
      <stop offset="0.54" stop-color="#cb4228"/>
    </linearGradient>
    <linearGradient id="a13c53d0-be4d-4669-bc34-b950410a6555" x1="629.67" y1="633.53" x2="670.51" y2="633.53" gradientTransform="matrix(0, -1, -1, 0, 736.98, 736.98)" xlink:href="#f479e366-babb-41b9-9474-4b6df082a8c8"/>
    <linearGradient id="a4085fe5-d3cf-45b5-b793-53365dca647b" x1="30.37" y1="-14.91" x2="118.59" y2="83.07" gradientUnits="userSpaceOnUse">
      <stop offset="0" stop-color="#ff755e"/>
      <stop offset="0.52" stop-color="#fa5743"/>
      <stop offset="1" stop-color="#ff6952"/>
    </linearGradient>
  </defs>
  <g>
    <path d="M40.85,8.59H0S7,0,13.82,0,40.85,8.59,40.85,8.59Z" fill="url(#f479e366-babb-41b9-9474-4b6df082a8c8)"/>
    <path d="M99.16,66.47v40.84s8.59-7,8.59-13.81S99.16,66.47,99.16,66.47Z" fill="url(#a13c53d0-be4d-4669-bc34-b950410a6555)"/>
    <path d="M13.82,0H70l37.8,37.74V92.83l0-.25a18.35,18.35,0,0,0-5.23-10.24L24.36,5.15A18.29,18.29,0,0,0,13.82,0Z" fill="url(#a4085fe5-d3cf-45b5-b793-53365dca647b)"/>
    <g>
      <path d="M62.25,22l-5-5,1.83-1.83,5,5Z" fill="#fff"/>
      <path d="M78,24.92,72.79,19.7l-3.21,3.21a4.62,4.62,0,0,1,2.8,1.44,5.67,5.67,0,0,1,1.29,1.9,5.24,5.24,0,0,1,.42,2.12,5.49,5.49,0,0,1-.44,2.13,5.75,5.75,0,0,1-5.56,3.59,6,6,0,0,1-2.28-.54,6.6,6.6,0,0,1-2-1.42,6.87,6.87,0,0,1-1.57-2.36,5.94,5.94,0,0,1-.39-2.64,5.87,5.87,0,0,1,.81-2.57l2.32,1.63a3.51,3.51,0,0,0-.33,2.18,3.65,3.65,0,0,0,2.5,2.81,3.11,3.11,0,0,0,1.63,0,3.31,3.31,0,0,0,1.47-.88,3.05,3.05,0,0,0,.85-1.45,3,3,0,0,0,0-1.6,3.46,3.46,0,0,0-.9-1.47,4.08,4.08,0,0,0-1.34-.89,3.86,3.86,0,0,0-1.48-.31l-1.5-1.87,6.92-6.92L79.93,23Z" fill="#fff"/>
      <path d="M72.69,40.5,71,38.78l20.11-4.64,1.72,1.72Zm11.67.81a4,4,0,0,1,1.06,1.79,3.88,3.88,0,0,1,0,2A4.2,4.2,0,0,1,82.56,48a3.77,3.77,0,0,1-2,0,4,4,0,0,1-1.83-1.09,4.08,4.08,0,0,1-1.07-1.78,3.88,3.88,0,0,1,0-2,4.24,4.24,0,0,1,2.88-2.87,3.81,3.81,0,0,1,2,0A4.05,4.05,0,0,1,84.36,41.31Zm-5-13.56a4,4,0,0,1,1.82-1.07,3.71,3.71,0,0,1,2,0A3.95,3.95,0,0,1,85,33.37a3.88,3.88,0,0,1-1.8,1.06,3.71,3.71,0,0,1-2,0,4.28,4.28,0,0,1-2.89-2.87,3.73,3.73,0,0,1,0-2A4,4,0,0,1,79.37,27.75Zm.4,16a1.69,1.69,0,0,0-.06.94,1.52,1.52,0,0,0,.44.8,1.56,1.56,0,0,0,.79.44,1.78,1.78,0,0,0,.94-.06,2.12,2.12,0,0,0,.88-.56,2.18,2.18,0,0,0,.57-.89,1.73,1.73,0,0,0,0-.93,1.52,1.52,0,0,0-.44-.8,1.64,1.64,0,0,0-.79-.44,1.78,1.78,0,0,0-.94.06,2.23,2.23,0,0,0-.88.56A2.08,2.08,0,0,0,79.77,43.75Zm.66-13.54a1.86,1.86,0,0,0-.07.93,1.69,1.69,0,0,0,1.26,1.26,1.72,1.72,0,0,0,.92-.07,2.26,2.26,0,0,0,.89-.56,2.19,2.19,0,0,0,.56-.89,1.82,1.82,0,0,0,.07-.92A1.69,1.69,0,0,0,82.8,28.7a1.71,1.71,0,0,0-.92.07,2.39,2.39,0,0,0-1.45,1.44Z" fill="#fff"/>
    </g>
  </g>
</svg>
