<?xml version="1.0" encoding="UTF-8"?>
<svg xmlns="http://www.w3.org/2000/svg" version="1.1" viewBox="0 0 900 900">
  <defs>
    <style>
      .cls-1 {
        fill: #163939;
      }

      .cls-2 {
        fill: #182424;
      }

      .cls-3 {
        fill: #135555;
      }

      .cls-4 {
        fill: #02f7f8;
      }

      .cls-5 {
        fill: #02c2c3;
      }
    </style>
  </defs>
  <!-- Generator: Adobe Illustrator 28.6.0, SVG Export Plug-In . SVG Version: 1.2.0 Build 709)  -->
  <g>
    <g id="Layer_1">
      <g>
        <circle class="cls-4" cx="450" cy="450" r="432"/>
        <circle class="cls-2" cx="450" cy="450" r="398.81"/>
        <circle class="cls-1" cx="450" cy="450" r="322.42"/>
        <circle class="cls-3" cx="450" cy="450" r="243.92"/>
        <g>
          <path class="cls-4" d="M484.22,456.89l-49.94,42.03c-4.2,3.54-10.62.55-10.62-4.94v-89.53c0-5.5,6.42-8.48,10.63-4.95l49.94,42.03c4.75,4,4.75,11.33,0,15.35Z"/>
          <path class="cls-5" d="M378.7,445.96v2.45c0,37.41,30.33,67.75,67.75,67.75h34.94c8.44,0,15.29,6.84,15.29,15.29v33.25c0,26.05-21.12,47.18-47.18,47.18h0c-92.48,0-169.34-74.55-168.47-167.02.22-23.56,5.37-45.93,14.46-66.15,8.28-18.44,19.88-35.1,33.99-49.21,12.15-12.17,26.2-22.44,41.66-30.37-5.63,2.98-10.73,6.12-15.35,9.26,8.75-2.45,56.79-14.98,100.02,13.32,26.75,17.52,39.63,42.81,45.7,57.01.99,2.3,1.79,4.29,2.45,5.92,6.45,16.08,9.17,30.97,10.23,42.81v18.53c0-34.7-26.06-63.28-59.68-67.26-2.65-.33-5.35-.49-8.06-.49s-5.41.15-8.06.49c-33.62,3.98-59.68,32.56-59.68,67.26Z"/>
          <path class="cls-4" d="M611.86,446.44v155.23c0,5.63-4.56,10.19-10.19,10.19h-38.41c-27.11,0-49.08-21.97-49.08-49.08v-135.36c-1.06-11.84-3.78-26.73-10.23-42.81-.66-1.63-1.46-3.62-2.45-5.92-6.07-14.2-18.95-39.49-45.7-57.01-43.23-28.3-91.27-15.77-100.02-13.32,4.62-3.14,9.72-6.27,15.35-9.26.07-.02.13-.07.2-.09,22.53-11.51,48.06-18,75.1-18,2.85,0,5.7.07,8.5.22,1.41.07,2.83.15,4.22.27,1.41.11,2.81.22,4.2.38.93.09,1.88.2,2.81.31.68.07,1.35.15,2.03.24.57.09,1.15.15,1.7.24.8.11,1.59.22,2.39.35.64.09,1.28.2,1.9.31,1.06.18,2.1.38,3.16.57,1.33.24,2.65.51,3.95.8.29.04.55.11.82.18,1.04.22,2.05.46,3.07.71.4.09.8.18,1.19.29,1.08.27,2.14.55,3.2.84.27.04.51.11.73.2,1.15.31,2.3.64,3.45.97.27.07.53.15.8.24,1.15.35,2.3.71,3.45,1.08.13.04.24.09.35.11,1.24.42,2.47.84,3.69,1.28.13.04.29.09.42.13,1.3.46,2.58.95,3.87,1.46,1.33.51,2.65,1.04,3.95,1.59.99.42,1.97.84,2.94,1.28.24.09.46.2.68.29.02,0,.04.02.07.04.07.02.13.07.22.11.11.02.22.07.33.13,1.04.46,2.08.95,3.11,1.44,1.13.55,2.28,1.1,3.4,1.68.49.24.99.51,1.5.77.93.49,1.83.97,2.74,1.46,1.24.66,2.47,1.35,3.69,2.05,1.1.64,2.19,1.28,3.25,1.92,1.13.71,2.28,1.39,3.38,2.12,1.04.66,2.08,1.35,3.11,2.03.13.09.27.18.4.29,1.04.68,2.08,1.41,3.09,2.14,1.08.77,2.14,1.55,3.2,2.34s2.12,1.59,3.16,2.43c1.04.82,2.08,1.63,3.09,2.47,2.05,1.7,4.04,3.42,6.01,5.21.11.09.24.2.35.31,1.83,1.7,3.62,3.4,5.39,5.17.88.88,1.74,1.77,2.63,2.67.07.07.11.11.15.18.91.95,1.81,1.92,2.69,2.89.88.97,1.77,1.97,2.63,2.96.6.7,1.19,1.39,1.77,2.09,2.32,2.76,4.56,5.59,6.68,8.51,1.16,1.6,2.4,3.3,3.52,5,.11.13.2.27.29.4.68,1.04,1.37,2.08,2.03,3.11.73,1.1,1.41,2.25,2.12,3.38.68,1.13,1.37,2.28,2.03,3.45.66,1.15,1.3,2.32,1.94,3.49.64,1.17,1.26,2.34,1.88,3.53.6,1.19,1.19,2.39,1.79,3.58.62,1.33,1.24,2.65,1.83,3.98.51,1.1.99,2.23,1.48,3.36.46,1.15.95,2.3,1.41,3.45.04.11.09.24.13.38.29.75.57,1.48.86,2.23.71,1.86,1.39,3.73,2.03,5.65.38,1.17.75,2.32,1.1,3.49.4,1.21.75,2.45,1.1,3.69.04.11.07.24.11.38.29,1.04.57,2.1.84,3.16.31,1.06.57,2.14.82,3.22.24,1.02.49,2.03.71,3.07.07.27.13.53.18.82.29,1.3.55,2.63.8,3.95.2,1.06.4,2.1.57,3.16.11.62.22,1.26.31,1.9.13.8.24,1.59.35,2.39.09.55.15,1.13.24,1.7.09.68.18,1.35.24,2.03.11.93.22,1.88.31,2.81.15,1.39.27,2.78.38,4.2.11,1.39.2,2.81.27,4.22.15,2.81.22,5.65.22,8.5Z"/>
        </g>
      </g>
    </g>
  </g>
</svg>