<svg id="e2fe2331-1492-4e45-ad8e-88ded3edf233" data-name="af122a26-2aa2-4ece-9608-53774a7f3992" xmlns="http://www.w3.org/2000/svg" width="303.22" height="303.22" viewBox="0 0 303.22 303.22">
  <rect width="303.22" height="303.22" rx="151.61" fill="#ec1b30"/>
  <g>
    <path d="M229.3,86.15a32.33,32.33,0,0,0-19.06,4.66c-8.3,5-13.44,12.34-15.72,22a25.76,25.76,0,0,0-17.44-9.35l8.48-17.56a6.06,6.06,0,0,0-.85-.17c-5.27,0-10.54,0-15.8,0A2.4,2.4,0,0,0,167.29,87c-2.25,4.51-4.4,9.06-6.58,13.6l-8.58,17.87a26.18,26.18,0,0,0-12-11.67l10.13-20.95a8.44,8.44,0,0,0-.94-.14c-9.81,0-19.63,0-29.44,0a2.06,2.06,0,0,0-1.49,1.08c-1.29,3.06-2.46,6.17-3.65,9.27-.69,1.79-1.35,3.59-2.12,5.63h12.14c-1.56,3.27-3,6.31-4.47,9.34l-4.48,9.35h2.51c4.16,0,8.33-.07,12.47.15a8.45,8.45,0,0,1,7.52,6.92c.56,3.26-1.52,6.88-4.87,8.48-3.93,1.86-9,.69-12.26-2.87-1-1.05-1.83-2.17-2.81-3.34-2.69,2.53-5.27,4.95-7.84,7.38-2.39,2.27-2.3,1.52-.48,4.21,10.32,15.2,27.12,14.09,37.27,4a59.24,59.24,0,0,0,5.09-6.55c9.2,19.5,37.68,18.74,46.1-2.65a33.44,33.44,0,0,0,19.8,15.08,33.38,33.38,0,0,0,41.82-38.51A33.3,33.3,0,0,0,229.3,86.15ZM175,136.86a8.76,8.76,0,1,1-.07-17.52,8.92,8.92,0,0,1,8.88,8.74A8.8,8.8,0,0,1,175,136.86Zm52,1.47a19,19,0,0,1-18.9-19.28c.12-10.68,8.86-18.9,19.94-18.75a19,19,0,1,1-1,38Z" transform="translate(1.61 1.61)" fill="#fff"/>
    <path d="M111.59,86a2.69,2.69,0,0,0-.65-.24c-1.83,0-3.66-.05-5.49,0-2.49,0-3.75.92-4.6,3.28l-7.73,21.54a21.44,21.44,0,0,1-1,1.93c-.41-.92-.64-1.38-.82-1.86L83.62,89.23c-1-2.76-2-3.51-4.9-3.51H41.13c-.6,0-1.19,0-1.7.07-.11.27-.19.37-.19.47a6,6,0,0,0,6,6.55c2.24.08,4.5,0,6.85,0V95c0,7.93,0,15.86,0,23.79,0,1.39.41,1.85,1.79,1.78a50.71,50.71,0,0,1,5.65,0c1.32.06,1.69-.41,1.68-1.71,0-7.81,0-15.63,0-23.45V92.86c4.68,0,9.22,0,13.75,0,.37,0,.89.58,1.08,1,.89,2,1.69,4.09,2.51,6.14q3.23,8,6.45,16a7.31,7.31,0,0,0,7.27,4.81,7,7,0,0,0,7.14-4.63c3.35-8.31,6.74-16.6,10.11-24.91C110.16,89.58,110.87,87.81,111.59,86Z" transform="translate(1.61 1.61)" fill="#fff"/>
    <path d="M235.94,117.18q-5.52-3.23-11.09-6.35c-1.87-1-3.29-.19-3.33,2,0,.52,0,1,0,1.58,0,1.58,0,3.16,0,4.74s0,3.24,0,4.86c0,.54,0,1.08,0,1.62,0,2,1.5,3,3.25,2,3.77-2.11,7.51-4.25,11.23-6.45C237.93,120,237.9,118.32,235.94,117.18Z" transform="translate(1.61 1.61)" fill="#fff"/>
    <path d="M221.51,119.13c0-1.58,0-3.16,0-4.74,0,1.58,0,3.16,0,4.74s0,3.24,0,4.86C221.49,122.37,221.51,120.75,221.51,119.13Z" transform="translate(1.61 1.61)" fill="#fff"/>
  </g>
  <g>
    <path d="M193,237.88H107a21.56,21.56,0,0,1-21.53-21.54V184.23A21.56,21.56,0,0,1,107,162.69h86a21.56,21.56,0,0,1,21.53,21.54v32.11A21.56,21.56,0,0,1,193,237.88Zm-86-69.07a15.43,15.43,0,0,0-15.41,15.42v32.11A15.43,15.43,0,0,0,107,231.76h86a15.43,15.43,0,0,0,15.41-15.42V184.23A15.43,15.43,0,0,0,193,168.81Z" transform="translate(1.61 1.61)" fill="#fff"/>
    <g>
      <path d="M132.23,219.32v-5.77H114.55q-4.9,0-4.9-6.47a9.5,9.5,0,0,1,.57-3.57,8.5,8.5,0,0,1,1.93-2.75l17.91-17.63a8.58,8.58,0,0,1,6.36-2.34q5.61,0,5.61,4.9v20.24h5.22v7.62H142v5.77Zm0-13.39v-14a.19.19,0,0,0-.21-.22c-.11,0-.33.19-.66.55l-12,12.24a1.37,1.37,0,0,0-.48.87c0,.4.23.6.7.6Z" transform="translate(1.61 1.61)" fill="#fff"/>
      <path d="M150.25,219.32V181.23H160v38.09Zm39.23,0h-12l-13.72-14.64a7,7,0,0,1-1.85-4.9,6.38,6.38,0,0,1,1.52-4.24l12.36-14.31h11.75L172.67,196.9a4.11,4.11,0,0,0-1.47,2.77c0,.91.63,2,1.9,3.27Z" transform="translate(1.61 1.61)" fill="#fff"/>
    </g>
  </g>
</svg>
